<mxfile host="www.draw.io" modified="2019-12-12T05:24:44.016Z" agent="Mozilla/5.0 (Windows NT 10.0; Win64; x64) AppleWebKit/537.36 (KHTML, like Gecko) Chrome/73.0.3683.86 Safari/537.36" etag="Nh-UbSd4zNDxueBa3SaO" version="12.3.9" type="github" pages="1">
  <diagram id="NSl42ijT1unhl8PalOJW" name="Page-1">
    <mxGraphModel dx="1038" dy="580" grid="1" gridSize="10" guides="1" tooltips="1" connect="1" arrows="1" fold="1" page="1" pageScale="1" pageWidth="850" pageHeight="1100" math="0" shadow="0">
      <root>
        <mxCell id="0"/>
        <mxCell id="1" parent="0"/>
        <mxCell id="dnBPCVc1z-DArwMIPLX7-1" value="DPDK" style="rounded=0;whiteSpace=wrap;html=1;fillColor=#dae8fc;strokeColor=#6c8ebf;verticalAlign=bottom;align=center;" vertex="1" parent="1">
          <mxGeometry x="280" y="240" width="320" height="100" as="geometry"/>
        </mxCell>
        <mxCell id="dnBPCVc1z-DArwMIPLX7-8" value="" style="edgeStyle=orthogonalEdgeStyle;rounded=0;orthogonalLoop=1;jettySize=auto;html=1;startArrow=classic;startFill=1;" edge="1" parent="1" source="dnBPCVc1z-DArwMIPLX7-3" target="dnBPCVc1z-DArwMIPLX7-7">
          <mxGeometry relative="1" as="geometry"/>
        </mxCell>
        <mxCell id="dnBPCVc1z-DArwMIPLX7-3" value="Tun/Tap" style="rounded=0;whiteSpace=wrap;html=1;fillColor=#d5e8d4;strokeColor=#82b366;" vertex="1" parent="1">
          <mxGeometry x="360" y="170" width="160" height="50" as="geometry"/>
        </mxCell>
        <mxCell id="dnBPCVc1z-DArwMIPLX7-9" value="" style="edgeStyle=orthogonalEdgeStyle;rounded=0;orthogonalLoop=1;jettySize=auto;html=1;startArrow=none;startFill=0;" edge="1" parent="1" source="dnBPCVc1z-DArwMIPLX7-5" target="dnBPCVc1z-DArwMIPLX7-7">
          <mxGeometry relative="1" as="geometry"/>
        </mxCell>
        <mxCell id="dnBPCVc1z-DArwMIPLX7-5" value="IN" style="rounded=0;whiteSpace=wrap;html=1;align=center;fillColor=#f5f5f5;strokeColor=#666666;fontColor=#333333;" vertex="1" parent="1">
          <mxGeometry x="280" y="240" width="50" height="100" as="geometry"/>
        </mxCell>
        <mxCell id="dnBPCVc1z-DArwMIPLX7-6" value="OUT" style="rounded=0;whiteSpace=wrap;html=1;align=center;fillColor=#f5f5f5;strokeColor=#666666;fontColor=#333333;" vertex="1" parent="1">
          <mxGeometry x="550" y="240" width="50" height="100" as="geometry"/>
        </mxCell>
        <mxCell id="dnBPCVc1z-DArwMIPLX7-10" value="" style="edgeStyle=orthogonalEdgeStyle;rounded=0;orthogonalLoop=1;jettySize=auto;html=1;startArrow=none;startFill=0;" edge="1" parent="1" source="dnBPCVc1z-DArwMIPLX7-7" target="dnBPCVc1z-DArwMIPLX7-6">
          <mxGeometry relative="1" as="geometry"/>
        </mxCell>
        <mxCell id="dnBPCVc1z-DArwMIPLX7-7" value="Forwarding/Filter" style="rounded=0;whiteSpace=wrap;html=1;align=center;" vertex="1" parent="1">
          <mxGeometry x="360" y="265" width="160" height="50" as="geometry"/>
        </mxCell>
        <mxCell id="dnBPCVc1z-DArwMIPLX7-11" value="BGP Entity" style="rounded=0;whiteSpace=wrap;html=1;align=center;fillColor=#fff2cc;strokeColor=#d6b656;" vertex="1" parent="1">
          <mxGeometry x="360" y="120" width="160" height="50" as="geometry"/>
        </mxCell>
      </root>
    </mxGraphModel>
  </diagram>
</mxfile>
